<svg width="800" height="800" viewBox="0 0 800 800" fill="none" xmlns="http://www.w3.org/2000/svg">
<rect width="800" height="800" fill="white"/>
<path d="M409.383 146.029C379.129 98.0693 328.457 68.6021 277.827 113.246C245.985 141.336 256.847 191.923 270.197 226.098C291.964 281.772 329.258 334.187 371.133 374.952C380.033 383.608 389.509 391.608 399.56 398.953C399.726 399.072 399.926 399.133 400.13 399.125C400.334 399.117 400.529 399.042 400.685 398.91C460.083 347.719 617.298 193.806 529.303 109.761C483.662 66.157 437.248 107.33 410.156 146.043C410.112 146.106 410.054 146.157 409.986 146.192C409.918 146.227 409.842 146.245 409.766 146.244C409.689 146.242 409.614 146.222 409.547 146.184C409.48 146.147 409.424 146.094 409.383 146.029Z" stroke="#34CE23" stroke-width="37"/>
<path d="M376.726 391.477C345.924 363.485 312.096 340.43 275.242 322.312C229.572 299.843 129.859 259.977 93.239 319.277C59.7107 373.589 92.7612 419.103 142.548 442.388C142.637 442.428 142.714 442.491 142.772 442.57C142.829 442.65 142.865 442.743 142.876 442.842C142.888 442.94 142.874 443.04 142.836 443.133C142.798 443.226 142.738 443.308 142.66 443.371C116.846 463.915 83.7679 503.613 98.0167 539.375C106.504 560.692 129.592 577.4 151.71 583.161C239.31 605.968 349.999 470.674 392.717 408.578C392.829 408.413 392.884 408.216 392.873 408.018C392.863 407.82 392.789 407.632 392.661 407.482C388.155 402.367 382.843 397.032 376.726 391.477Z" stroke="#34CE23" stroke-width="37"/>
<path d="M657.599 442.514C693.277 423.305 727.649 394.54 718.824 348.73C716.126 334.735 707.203 317.282 696.172 306.42C669.094 279.777 617.466 287.801 585.09 298.002C519.102 318.785 453.97 357.091 406.896 407.482C406.757 407.63 406.672 407.82 406.657 408.022C406.642 408.224 406.696 408.426 406.811 408.592C444.176 462.145 489.339 514.32 542.695 552.5C586.313 583.709 645.95 605.069 689.019 558.444C726.496 517.875 689.652 470.098 657.515 443.301C657.455 443.251 657.409 443.186 657.379 443.114C657.35 443.041 657.34 442.963 657.348 442.885C657.356 442.807 657.383 442.733 657.427 442.668C657.471 442.604 657.53 442.551 657.599 442.514Z" stroke="#34CE23" stroke-width="37"/>
<path d="M397.804 417.445C381.841 477.522 376.646 538.555 382.22 600.544C385.579 637.922 394.094 674.191 411.744 707.55C411.841 707.733 412 707.874 412.192 707.946C412.384 708.019 412.594 708.018 412.783 707.944L478.224 683.198C478.315 683.163 478.397 683.108 478.465 683.038C478.533 682.967 478.584 682.883 478.616 682.791C478.648 682.699 478.66 682.601 478.651 682.504C478.641 682.407 478.611 682.313 478.561 682.228C434.03 606.066 400.207 514.109 398.324 425.132C398.314 424.654 398.488 423.389 398.844 421.337C399.087 419.951 398.914 418.64 398.324 417.403C398.108 416.944 397.935 416.958 397.804 417.445Z" stroke="#34CE23" stroke-width="37"/>
</svg>
