<svg width="456" height="440" viewBox="0 0 456 440" fill="none" xmlns="http://www.w3.org/2000/svg">
<path d="M235.207 39.1372C254.487 11.5872 287.517 -17.7128 319.997 13.3172C382.617 73.1272 270.737 182.657 228.467 219.087C228.357 219.181 228.218 219.235 228.073 219.24C227.928 219.245 227.785 219.202 227.667 219.117C220.514 213.891 213.771 208.197 207.437 202.037C177.637 173.027 151.097 135.727 135.607 96.1072C126.107 71.7872 118.377 35.7872 141.037 15.7972C177.067 -15.9728 213.127 4.99722 234.657 39.1272C234.687 39.1732 234.727 39.2111 234.774 39.2378C234.822 39.2644 234.875 39.2789 234.93 39.2799C234.984 39.2808 235.038 39.2683 235.087 39.2435C235.135 39.2186 235.177 39.1821 235.207 39.1372Z" fill="#4E9846"/>
<path d="M211.417 213.797C215.771 217.751 219.551 221.547 222.757 225.187C222.848 225.294 222.902 225.428 222.909 225.568C222.916 225.709 222.877 225.849 222.798 225.967C192.398 270.157 113.627 366.437 51.2875 350.207C35.5475 346.107 19.1175 334.217 13.0775 319.047C2.9375 293.597 26.4775 265.347 44.8475 250.727C44.9026 250.682 44.9456 250.624 44.9725 250.558C44.9994 250.492 45.0094 250.42 45.0014 250.35C44.9934 250.28 44.9677 250.214 44.9268 250.157C44.8858 250.101 44.831 250.056 44.7675 250.027C9.3375 233.457 -14.1825 201.067 9.6775 162.417C35.7375 120.217 106.697 148.587 139.197 164.577C165.424 177.471 189.497 193.877 211.417 213.797Z" fill="#4D9D44"/>
<path d="M411.238 250.677C434.108 269.747 460.327 303.747 433.657 332.617C403.007 365.797 360.568 350.597 329.528 328.387C291.558 301.217 259.417 264.087 232.827 225.977C232.746 225.859 232.707 225.715 232.718 225.572C232.729 225.428 232.789 225.292 232.887 225.187C266.387 189.327 312.737 162.067 359.697 147.277C382.737 140.017 419.478 134.307 438.748 153.267C446.598 160.997 452.948 173.417 454.868 183.377C461.148 215.977 436.688 236.447 411.298 250.117C411.248 250.143 411.206 250.181 411.175 250.227C411.144 250.273 411.125 250.326 411.119 250.381C411.113 250.437 411.121 250.492 411.141 250.544C411.162 250.596 411.195 250.641 411.238 250.677Z" fill="#4D9D44"/>
<path d="M226.787 232.247C227.207 233.127 227.331 234.061 227.157 235.047C226.904 236.507 226.781 237.407 226.787 237.747C228.127 301.067 252.197 366.507 283.887 420.707C283.923 420.767 283.944 420.834 283.951 420.903C283.958 420.972 283.95 421.042 283.927 421.108C283.904 421.173 283.867 421.233 283.819 421.283C283.771 421.333 283.712 421.372 283.647 421.397L237.077 439.007C236.943 439.06 236.793 439.061 236.657 439.009C236.52 438.957 236.407 438.857 236.338 438.727C223.778 414.987 217.717 389.177 215.327 362.577C211.361 318.464 215.057 275.031 226.417 232.277C226.511 231.931 226.634 231.921 226.787 232.247Z" fill="#4D9D44"/>
</svg>
