<?xml version="1.0" standalone="no"?>
<!DOCTYPE svg PUBLIC "-//W3C//DTD SVG 20010904//EN"
 "http://www.w3.org/TR/2001/REC-SVG-20010904/DTD/svg10.dtd">
<svg version="1.0" xmlns="http://www.w3.org/2000/svg"
 width="700.000000pt" height="700.000000pt" viewBox="0 0 700.000000 700.000000"
 preserveAspectRatio="xMidYMid meet">
<metadata>
Created by potrace 1.14, written by Peter Selinger 2001-2017
</metadata>
<g transform="translate(0.000000,700.000000) scale(0.100000,-0.100000)"
fill="#000000" stroke="none">
<path d="M0 3500 l0 -3500 3500 0 3500 0 0 3500 0 3500 -3500 0 -3500 0 0
-3500z m3060 2843 c149 -35 336 -149 467 -285 l61 -64 91 87 c314 302 635 365
930 182 144 -90 282 -254 349 -415 86 -207 83 -479 -8 -750 -65 -194 -228
-486 -417 -746 -16 -23 -16 -23 43 4 264 119 526 210 719 250 112 24 154 27
310 28 154 0 193 -3 268 -22 170 -42 289 -117 391 -245 210 -261 259 -603 124
-871 -62 -123 -177 -255 -310 -355 l-57 -43 70 -86 c297 -366 317 -727 56
-1008 -332 -356 -789 -386 -1317 -84 -308 177 -705 532 -1032 925 -141 168
-131 161 -123 90 12 -105 55 -325 91 -470 98 -391 271 -822 488 -1219 78 -142
96 -182 96 -216 0 -54 -24 -105 -64 -134 -17 -13 -166 -75 -331 -137 -345
-131 -375 -136 -442 -84 -82 65 -221 410 -277 687 -85 423 -97 1002 -30 1448
8 54 18 62 -129 -105 -57 -66 -181 -194 -273 -285 -387 -380 -707 -586 -1052
-677 -133 -35 -346 -38 -466 -5 -233 64 -449 230 -550 421 -51 99 -69 171 -69
281 0 191 76 371 246 578 50 61 57 76 46 86 -8 7 -47 38 -86 70 -154 123 -265
287 -315 463 -27 98 -29 264 -5 366 59 240 208 444 397 541 147 76 212 90 435
90 167 0 205 -3 315 -27 230 -48 524 -154 759 -271 l109 -55 -69 112 c-147
236 -298 565 -354 771 -60 219 -73 447 -35 604 56 232 215 413 464 528 157 72
314 87 486 47z"/>
<path d="M2800 6030 c-130 -27 -295 -151 -343 -258 -94 -209 -32 -536 184
-963 124 -245 313 -523 505 -744 88 -101 306 -320 334 -335 15 -8 42 12 164
128 470 444 825 912 970 1278 81 204 102 405 57 545 -55 172 -229 339 -372
356 -152 18 -355 -116 -534 -352 -77 -101 -111 -125 -180 -125 -70 0 -105 25
-179 130 -73 104 -193 223 -271 269 -108 65 -234 92 -335 71z"/>
<path d="M1208 4294 c-153 -37 -247 -126 -314 -299 -35 -89 -39 -220 -11 -302
50 -144 188 -284 382 -389 115 -61 145 -98 145 -179 0 -65 -16 -89 -119 -183
-198 -181 -315 -394 -296 -536 19 -146 190 -302 386 -352 81 -21 222 -14 329
16 97 27 290 122 405 199 306 205 711 610 1019 1021 44 58 83 110 88 116 14
19 -274 255 -477 391 -368 246 -814 436 -1165 498 -105 18 -295 18 -372 -1z"/>
<path d="M5390 4290 c-377 -67 -922 -320 -1298 -603 -103 -77 -286 -231 -312
-261 -10 -13 4 -36 78 -133 244 -320 579 -674 817 -865 527 -422 931 -499
1204 -230 98 96 116 135 116 247 0 74 -5 101 -26 151 -43 102 -118 203 -246
330 -130 129 -142 152 -130 230 9 54 41 89 135 145 255 153 375 291 404 460
29 177 -86 420 -234 495 -111 56 -307 69 -508 34z"/>
<path d="M3495 2020 c8 -294 33 -489 95 -726 29 -110 86 -270 98 -278 7 -4
246 84 257 95 3 4 -19 53 -49 110 -124 234 -258 551 -353 834 l-54 160 6 -195z"/>
</g>
</svg>
